<?xml version="1.0" encoding="utf-8"?>
<svg viewBox="220.198 110.675 114.663 113.493" width="114.663px" height="113.493px" xmlns="http://www.w3.org/2000/svg">
  <ellipse style="paint-order: fill; stroke: rgb(70, 70, 70); stroke-width: 0px; fill: rgb(43, 43, 43);" cx="277.316" cy="167.458" rx="56" ry="55.892"/>
  <path d="M 278.235 146.654 L 243.492 146.654 C 240.912 146.654 238.218 148.687 237.51 151.167 L 227.485 186.249 C 226.863 188.431 228.209 190.215 230.479 190.215 L 265.22 190.215 C 267.802 190.215 270.494 188.185 271.205 185.701 L 275.248 171.547 L 256.579 171.547 L 252.778 184.847 C 252.424 186.089 251.077 187.104 249.787 187.104 L 245.912 187.104 L 255.934 152.02 C 256.289 150.782 257.635 149.766 258.927 149.766 L 262.801 149.766 L 259.246 162.211 L 277.915 162.211 L 281.227 150.619 C 281.85 148.439 280.506 146.654 278.235 146.654 Z M 327.333 146.654 L 283.773 146.654 L 282.884 149.766 L 295.33 149.766 L 283.773 190.215 L 302.441 190.215 L 314 149.766 L 326.445 149.766 L 327.333 146.654 Z" style="fill: rgb(37, 190, 90);"/>
</svg>