<?xml version="1.0" encoding="utf-8"?>
<svg viewBox="68.29 100.357 298.1 69.477" width="298.1" height="69.477" xmlns="http://www.w3.org/2000/svg">
  <path d="M 120.575 113.456 L 92.66 113.456 C 90.586 113.456 88.423 115.088 87.853 117.082 L 84.8 127.769 C 84.299 129.522 85.38 130.956 87.203 130.956 L 103.889 130.956 L 100.121 144.143 C 99.836 145.14 98.755 145.956 97.717 145.956 L 94.603 145.956 L 98.175 133.456 L 83.175 133.456 L 79.799 145.269 C 79.298 147.022 80.38 148.456 82.203 148.456 L 110.117 148.456 C 112.192 148.456 114.355 146.824 114.925 144.83 L 118.692 131.643 C 119.193 129.89 118.112 128.456 116.288 128.456 L 99.603 128.456 L 102.656 117.769 C 102.941 116.772 104.023 115.956 105.06 115.956 L 108.174 115.956 L 105.317 125.956 L 120.317 125.956 L 122.978 116.643 C 123.479 114.89 122.397 113.456 120.574 113.456 Z M 129.109 113.456 L 126.966 120.956 L 141.966 120.956 L 144.109 113.456 Z M 119.109 148.456 L 134.109 148.456 L 141.252 123.456 L 126.252 123.456 Z M 196.687 123.456 L 148.773 123.456 C 146.698 123.456 144.535 125.088 143.965 127.082 L 137.858 148.456 L 152.858 148.456 L 158.769 127.769 C 159.054 126.772 160.136 125.956 161.173 125.956 L 164.287 125.956 L 157.858 148.456 L 172.858 148.456 L 178.769 127.769 C 179.054 126.772 180.136 125.956 181.173 125.956 L 184.287 125.956 L 177.858 148.456 L 192.858 148.456 L 199.091 126.643 C 199.591 124.89 198.51 123.456 196.687 123.456 Z M 207.527 123.456 C 205.453 123.456 203.29 125.088 202.72 127.082 L 193.756 158.456 L 208.756 158.456 L 211.095 150.269 C 211.38 149.272 212.462 148.456 213.499 148.456 L 227.842 148.456 C 229.916 148.456 232.08 146.824 232.649 144.83 L 237.846 126.643 C 238.347 124.89 237.265 123.456 235.442 123.456 Z M 217.845 144.143 C 217.56 145.14 216.479 145.956 215.442 145.956 L 212.327 145.956 L 217.524 127.769 C 217.809 126.772 218.89 125.956 219.928 125.956 L 223.042 125.956 Z M 245.264 113.456 L 235.264 148.456 L 250.264 148.456 L 260.264 113.456 Z M 264.047 113.456 L 261.904 120.956 L 276.904 120.956 L 279.047 113.456 Z M 254.047 148.456 L 269.047 148.456 L 276.19 123.456 L 261.19 123.456 Z" style="fill: rgb(255, 255, 255);"/>
  <path d="M 313.209 113.456 L 285.295 113.456 C 283.221 113.456 281.057 115.088 280.488 117.082 L 272.434 145.269 C 271.934 147.022 273.015 148.456 274.838 148.456 L 302.752 148.456 C 304.827 148.456 306.99 146.824 307.56 144.83 L 310.81 133.456 L 295.81 133.456 L 292.756 144.143 C 292.471 145.14 291.39 145.956 290.352 145.956 L 287.238 145.956 L 295.292 117.769 C 295.577 116.772 296.658 115.956 297.696 115.956 L 300.81 115.956 L 297.952 125.956 L 312.952 125.956 L 315.613 116.643 C 316.114 114.89 315.032 113.456 313.209 113.456 Z M 352.654 113.456 L 317.654 113.456 L 316.94 115.956 L 326.939 115.956 L 317.654 148.456 L 332.654 148.456 L 341.939 115.956 L 351.94 115.956 Z" style="fill: rgb(37, 190, 90);"/>
</svg>